<?xml version="1.0" encoding="UTF-8"?>
<svg id="Layer_2" data-name="Layer 2" xmlns="http://www.w3.org/2000/svg" viewBox="0 0 466.65 339.84">
  <defs>
    <style>
      .cls-1 {
        fill: #212529;
      }

      .cls-2 {
        fill: #f39d1e;
      }
    </style>
  </defs>
  <g id="Layer_1-2" data-name="Layer 1">
    <g>
      <g>
        <path class="cls-1" d="m251.01,309.38c-.09-15.47-5.6-28.04-18.11-36.95-8.45-6.01-18.05-7.87-28.22-6.77-10.83,1.17-19.52,6.3-26.43,14.66-6.92,8.37-9.38,18.21-9.58,29.07-4.76,0-9.2,0-13.64,0-9.59.02-19.19.08-28.78.05-11.74-.03-18.89-6.87-19.14-18.51-.18-8.18-.42-16.39.1-24.54.72-11.29,7.87-17.59,19.13-17.62,19.65-.05,39.3-.07,58.96-.07,86.81,0,173.61.02,260.42.02,14.16,0,20.92,6.79,20.92,21.08,0,7.26.04,14.52-.01,21.78-.06,9.26-6.53,17.18-15.7,17.56-14.52.6-29.08.24-43.62.32-2.81.02-2.65-1.81-2.71-3.77-.48-16.02-7.79-28.03-21.78-35.73-25.69-14.15-59.03,4.81-59.87,34.16-.14,4.84-1.45,5.56-6.02,5.48-20.11-.37-40.23-.2-60.34-.23-1.68,0-3.36,0-5.58,0Z"/>
        <path class="cls-1" d="m209.73,339.84c-18.7-.03-33.67-15.21-33.57-34.06.09-18.4,15.4-33.51,33.79-33.37,18.47.14,33.61,15.24,33.68,33.61.08,18.58-15.23,33.85-33.9,33.82Zm-12.5-33.72c-.08,6.73,5.88,12.6,12.76,12.59,6.88-.01,12.64-5.88,12.58-12.81-.06-6.65-6.16-12.41-13.11-12.36-6.64.04-12.15,5.71-12.22,12.59Z"/>
        <path class="cls-1" d="m330.22,306.06c.12-18.72,15.05-33.61,33.6-33.5,18.75.11,34.03,15.48,33.76,33.99-.27,18.88-15.53,33.41-34.97,33.27-17.81-.12-32.51-15.45-32.39-33.76Zm45.92-.45c-.08-6.76-5.67-12.15-12.52-12.07-7.21.09-12.46,5.75-12.33,13.29.11,6.41,6.21,12.01,12.88,11.84,7.04-.18,12.06-5.65,11.97-13.06Z"/>
      </g>
      <g>
        <path class="cls-2" d="m187.26,68.87c-2.74,0-4.55,0-6.36,0-23.99,0-47.97.02-71.96-.04-2.44,0-4.94-.32-7.31-.91-5.35-1.34-8.53-5.61-8.03-10.38.48-4.54,4.77-8.64,9.74-9.15,1.84-.19,3.71-.11,5.57-.11,36.83.03,73.66.3,110.49-.1,7.67-.08,15.31-2.65,24.03-4.27-1.76-2.92-2.66-4.61-3.74-6.19-7.83-11.42-5.12-26.43,6.15-33.83,11.31-7.42,26.34-3.96,33.34,8.15,4.65,8.04,4.63,16.45-.92,25.1,2.27.36,4.01.88,5.74.89,34.98.06,66.12,11.66,93.92,32.2,20.75,15.33,36.19,35.16,46.95,58.71,7.45,16.31,12.05,33.29,14.36,50.99,1.01,7.78-3.31,14.57-11.1,16.21-6.39,1.35-12.93,2-20.64,3.14,8.35-11.42,3.79-22.36,1.65-32.71-7.18-34.72-24.55-63.79-51.82-86.51-17.93-14.94-37.68-27-60.7-32.76-4.25-1.06-8.59-1.74-14-2.82,1.03,1.61,1.21,2.25,1.63,2.51,29.97,18.02,49.46,44.51,62.69,76.31,8.43,20.27,12.53,41.58,16.1,63.01,2.28,13.68-3.61,20.11-17.67,21.8-16.08,1.93-32.1,4.44-48.15,6.65-21.85,3.01-43.71,5.92-65.55,8.99-13.9,1.95-27.76,4.23-41.66,6.15-31.09,4.29-62.28,7.35-93.74,5.9-6.29-.29-11.77-4.83-11.71-9.73.08-6.06,5.83-10.85,12.76-10.67,7.73.2,15.46.28,23.19.56,3.57.13,5.19-1.19,4.85-4.86-.37-4-.84-8.02-.74-12.01.11-4.28-1.9-5.11-5.68-5.09-22.28.12-44.56.06-66.85.02-1.84,0-3.73-.07-5.51-.48-4.79-1.11-8.51-5.51-8.48-9.75.03-4.59,3.37-8.32,8.74-9.35,2.71-.52,5.51-.84,8.27-.85,21.51-.07,43.02-.04,64.53-.05,8.01,0,6.36-.43,8.76-12.52.32-1.63.76-3.25,1.15-4.87.93-3.83-.86-4.83-4.53-4.69-10.04.37-20.09.65-30.13.84-1.98.04-4.01-.25-5.94-.71-5.26-1.27-8.01-4.43-8.29-9.19-.23-4.09,2.87-8.48,7.66-9.77,3.23-.87,6.71-1.11,10.08-1.1,12.22.06,24.43.43,36.65.48,1.43,0,3.55-.84,4.2-1.96,3.1-5.32,5.95-10.8,8.6-16.36,1.58-3.31-.83-3.51-3.28-3.48-14.53.18-29.07.48-43.6.35-2.89-.03-5.98-1.35-8.59-2.77-3.03-1.65-5.47-4.21-4.83-8.22.68-4.25,3.39-7.01,7.3-8.18,2.91-.87,6.08-1.23,9.12-1.21,19.02.1,38.05.43,57.07.5,1.94,0,3.83-.67,5.32-1.91,6.65-5.58,13.08-11.4,19.55-17.18.4-.36.53-1.02,1.36-2.71Z"/>
        <path class="cls-2" d="m30.39,131.27c7.7.38,15.41.67,23.11,1.16,5.96.38,9.98,4.61,9.89,10.08-.08,5.49-3.75,8.71-10.19,8.86-12.65.3-25.29.62-37.94.8-2.59.04-5.23-.34-7.78-.86C3.2,150.44.06,146.66,0,142.49c-.07-4.58,1.93-7.81,6.67-8.57,7.83-1.25,23.66-2.9,23.71-2.65Z"/>
        <path class="cls-2" d="m42.12,106.91c-2.01-1.16-3.64-4.79-3.6-7.27.06-3.45,1.86-6.89,5.82-8.11,8.07-2.49,16.29-1.76,24.15.29,2.49.65,4.74,4.52,5.88,7.4,1.34,3.39-.81,6.65-3.93,7.99-4.53,1.94-24.29,2.04-28.33-.3Z"/>
        <path class="cls-2" d="m43.09,215.59c3.21.19,5.57.08,7.81.52,4.32.85,7.14,3.49,7.97,7.91.38,2.05.19,3.85-.53,5.38-1.13,2.41-3.22,3.53-4.32,4.1-2.07,1.07-3.08.85-10.7,1.13-5.59.2-7.61.41-10.28-.83-.82-.39-1.96-.9-2.99-2.07-1.96-2.21-2.32-5.35-1.97-8.43.47-4.14,3.88-6.21,7.63-7.09,2.66-.62,5.5-.49,7.37-.62Z"/>
      </g>
    </g>
  </g>
</svg>