<?xml version="1.0" encoding="UTF-8"?>
<svg id="Layer_2" data-name="Layer 2" xmlns="http://www.w3.org/2000/svg" viewBox="0 0 711.09 431.36">
  <defs>
    <style>
      .cls-1 {
        font-family: Montserrat-ExtraBold, Montserrat;
        font-size: 128.76px;
        font-weight: 700;
      }

      .cls-2 {
        fill: #f39d1e;
      }

      .cls-3 {
        fill: #f1f2f2;
      }
    </style>
  </defs>
  <g id="Layer_1-2" data-name="Layer 1">
    <g>
      <text class="cls-1" transform="translate(0 396.85)"><tspan class="cls-3" x="0" y="0">Eazy</tspan><tspan class="cls-2" x="317.01" y="0">Order</tspan></text>
      <g>
        <path class="cls-2" d="m289.78,154.7c1.51-1.58,3.02-3.23,4.6-4.81,13.87-13.88,27.67-27.82,41.69-41.55,2.9-2.84,3.51-6.19,3.5-9.63-.05-13.92,7.03-23.4,17.42-31.9,11.56-9.45,22.11-20.14,32.99-30.4,8.1-7.64,17.15-13,28.73-12.09,9.33.73,16.74,5.46,23.23,11.93,12.61,12.58,22.21,27.22,28.57,43.76,9.36,24.34,11.55,49.36,5.18,74.89-3.53,14.13-9.07,27.42-16.9,39.76-.97,1.52-2.11,2.92-3.22,4.34-2.45,3.15-2.6,6.21-.59,9.59,9.57,16.11,18.98,32.31,28.63,48.37,1.89,3.15,1.17,5.38-.89,7.86-2.03,2.45-4.07,2.06-6.79.98-10.87-4.33-21.87-8.31-32.79-12.51-8.86-3.41-17.76-6.75-26.46-10.54-5.32-2.31-9.93-2.09-15.36.17-20.5,8.56-41.84,11.95-64.02,8.77-11.62-1.66-23.02-4.09-33.79-8.96l-.04-.02c-1.98-.9-2.52-3.46-1.07-5.07,1.74-1.94,3.31-3.67,5.19-5.57,15.32-15.51,30.17-31.5,44.18-48.2,6.8-8.11,14.49-12.37,24.72-14.1,23.81-4.03,41.2-16.95,50.11-39.83,1.8-4.63,2.81-10.07,2.35-14.96-.86-9.18-9.71-14.26-19.78-12.26-8.93,1.78-16.44,6.42-23.73,11.7-15.25,11.04-22.52,26.29-24.81,44.53-.71,5.68-2.85,10.81-7.42,14.95-15.44,13.97-30.43,28.44-45.99,42.27-12.7,11.29-31.94,11.18-43.77-.83-16.13-16.38-27.75-35.26-33.17-57.85-5.04-21-5.41-41.76.21-62.77,7.49-27.97,22.76-50.54,45.23-68.56C297.16,8.98,321.62.63,349.01.04c12.66-.28,25.09,1.04,37.34,3.94,2.55.6,5.05,1.43,7.68,2.36,3.39,1.19,4.4,5.5,1.9,8.08-1.43,1.47-2.77,2.88-4.08,4.31-12.82,14.03-25.6,28.09-38.4,42.14-3.69,4.05-6.89,8.79-11.27,11.88-4.12,2.91-9.49,4.05-14.32,5.95-.32.13-.66.18-1,.16-10.77-.59-18.1,5.12-25.02,12.58-9.08,9.78-18.95,18.84-28.41,28.28-2.45,2.44-4.7,5.08-7.06,7.6-2.02,2.16-3.48.88-5.1-.76-1.67-1.69-3.57-3.07-.92-5.66,7.63-7.46,15.56-14.61,22.75-22.5,6.25-6.86,13.5-12.86,19.56-19.89,4.56-5.3,10.44-6.69,16.78-7.57,4.08-.56,8.24-.86,12.18-1.96,6.51-1.82,9.94-7.64,14.22-12.21,8.08-8.61,15.91-17.45,23.86-26.19,4.26-4.69,8.59-9.32,12.8-14.05,1.66-1.86,1.65-3.71-1.17-4.31-5.7-1.22-11.41-2.85-17.18-3.23-34.59-2.28-65.3,7.28-91.26,30.76-16.34,14.78-27.59,32.86-33.5,53.96-4.82,17.18-5.61,34.63-2.49,52.46,3.55,20.26,12.32,37.87,24.29,54.16,9.32,12.68,16.5,13.89,20.29,14.35,1.95.24,7.22.59,19.82-6.33,3.85-2.11,16.36-9.29,34.71-28.88,8.56-9.14,12.84-13.7,16.13-20.19,6.31-12.46,1.36-16.16,7.84-27.93,9.9-17.99,24.06-31.22,44.3-36.75,7.75-2.12,15.65-2.41,23.06,1.96,8.89,5.23,11.04,13.44,10.26,22.89-.88,10.56-4.86,19.77-11.19,28.4-5.7,7.77-11.62,15.24-19.9,20.09-6.33,3.71-13.31,6.54-20.31,8.82-5.59,1.83-11.65,2.21-17.49,3.35-.92.18-2.18.91-2.81,1.59-8.75,9.47-17.41,19.01-26.14,28.5-7.01,7.62-14.1,15.17-21.13,22.78-3.18,3.44-2.63,5.48,1.97,6.55,27.88,6.49,55.17,5.37,81.54-6.63,3.92-1.79,7.35-2.29,11.75-.51,18.15,7.35,36.52,14.13,54.82,21.11.42.16.93.12,1.96.23-.38-1.15-.52-2.05-.94-2.78-7.69-13.4-14.9-27.11-23.35-40.01-4.02-6.14-3.01-9.56,1.08-14.92,17.75-23.26,24.88-49.93,22.67-78.94-.97-12.75-4.3-25.04-9.06-37.1-5.9-14.94-15.71-26.79-26.51-38.09-9.67-10.12-24.07-11.83-34.67-2.12-12.03,11.02-24.23,21.84-36.35,32.77-3.44,3.1-7.19,5.96-10.09,9.51-2.12,2.59-3.27,6.05-4.46,9.27-.61,1.65-.31,3.62-.47,5.44-.7,8.21-3.12,15.21-9.61,21.26-13.91,12.95-27.02,26.76-40.46,40.21-3.08,3.08-3.41,2.95-5.39-.68-.58-1.07-1.95-1.72-3.29-2.83Z"/>
        <path class="cls-2" d="m317.7,105.04c9.35,6.24,7.76,5.28,2.15,10.92-10.89,10.93-21.81,21.83-32.83,32.63-.61.6-2.34.63-3.22.22-1.14-.54-2.29-1.64-2.79-2.78-.45-1.04-.55-2.96.1-3.62,12.15-12.57,24.43-25.01,36.59-37.38Z"/>
        <path class="cls-2" d="m274.69,139.51c-1.69-1.57-3.47-2.67-4.34-4.27-.5-.92.02-3.08.85-3.94,5.98-6.21,12.17-12.22,18.26-18.31,5.5-5.49,10.97-11,16.43-16.53,1.45-1.47,2.9-2.51,4.45-.26,1.25,1.82,4.94,2.96,1.79,6.12-12.09,12.12-24.15,24.27-36.24,36.4-.33.33-.79.52-1.19.79Z"/>
      </g>
    </g>
  </g>
</svg>