<?xml version="1.0" encoding="UTF-8"?>
<svg id="Layer_2" data-name="Layer 2" xmlns="http://www.w3.org/2000/svg" viewBox="0 0 686.31 178.63">
  <defs>
    <style>
      .cls-1 {
        fill: #f39d1e;
      }

      .cls-2 {
        fill: #f1f2f2;
      }

      .cls-3 {
        font-family: Montserrat-ExtraBold, Montserrat;
        font-size: 86.26px;
        font-weight: 700;
      }
    </style>
  </defs>
  <g id="Layer_1-2" data-name="Layer 1">
    <g>
      <text class="cls-3" transform="translate(209.95 114.41)"><tspan class="cls-2" x="0" y="0">Eazy</tspan><tspan class="cls-1" x="212.36" y="0">Order</tspan></text>
      <g>
        <path class="cls-1" d="m42.47,103.64c1.01-1.06,2.02-2.16,3.08-3.22,9.29-9.3,18.53-18.64,27.93-27.83,1.94-1.9,2.35-4.15,2.35-6.45-.03-9.33,4.71-15.68,11.67-21.37,7.74-6.33,14.81-13.49,22.1-20.37,5.43-5.12,11.49-8.71,19.25-8.1,6.25.49,11.21,3.66,15.56,7.99,8.45,8.43,14.88,18.24,19.14,29.31,6.27,16.31,7.74,33.07,3.47,50.17-2.36,9.46-6.07,18.37-11.32,26.64-.65,1.02-1.41,1.95-2.15,2.91-1.64,2.11-1.74,4.16-.4,6.42,6.41,10.79,12.71,21.65,19.18,32.41,1.27,2.11.78,3.61-.59,5.27-1.36,1.64-2.73,1.38-4.55.66-7.28-2.9-14.65-5.57-21.97-8.38-5.93-2.29-11.89-4.52-17.72-7.06-3.56-1.55-6.65-1.4-10.29.11-13.73,5.73-28.03,8.01-42.89,5.88-7.78-1.11-15.42-2.74-22.63-6h-.02c-1.33-.61-1.69-2.33-.72-3.41,1.16-1.3,2.22-2.46,3.48-3.73,10.26-10.39,20.21-21.1,29.6-32.29,4.56-5.43,9.71-8.29,16.56-9.45,15.95-2.7,27.6-11.36,33.57-26.68,1.21-3.1,1.88-6.74,1.58-10.02-.58-6.15-6.51-9.55-13.25-8.21-5.98,1.19-11.01,4.3-15.9,7.83-10.22,7.4-15.09,17.61-16.62,29.83-.48,3.81-1.91,7.24-4.97,10.01-10.35,9.36-20.39,19.05-30.81,28.32-8.51,7.56-21.4,7.49-29.32-.56-10.81-10.97-18.59-23.62-22.22-38.75-3.37-14.07-3.63-27.98.14-42.05,5.01-18.74,15.25-33.86,30.3-45.93C47.41,6.02,63.8.43,82.15.02c8.48-.19,16.81.7,25.02,2.64,1.71.4,3.38.96,5.14,1.58,2.27.8,2.94,3.69,1.27,5.41-.95.99-1.85,1.93-2.73,2.89-8.59,9.4-17.15,18.82-25.72,28.23-2.47,2.71-4.62,5.89-7.55,7.96-2.76,1.95-6.36,2.71-9.59,3.99-.21.08-.44.12-.67.11-7.22-.4-12.12,3.43-16.76,8.43-6.08,6.55-12.69,12.62-19.03,18.94-1.64,1.64-3.15,3.4-4.73,5.09-1.36,1.44-2.33.59-3.42-.51-1.12-1.13-2.39-2.06-.62-3.79,5.11-4.99,10.42-9.79,15.24-15.07,4.19-4.59,9.05-8.61,13.1-13.32,3.06-3.55,6.99-4.48,11.24-5.07,2.73-.37,5.52-.57,8.16-1.31,4.36-1.22,6.66-5.12,9.53-8.18,5.42-5.77,10.66-11.69,15.98-17.55,2.86-3.14,5.75-6.24,8.58-9.41,1.11-1.25,1.1-2.49-.78-2.89-3.82-.82-7.64-1.91-11.51-2.16-23.17-1.53-43.75,4.88-61.13,20.61-10.95,9.9-18.48,22.01-22.44,36.15-3.23,11.51-3.76,23.2-1.67,35.14,2.38,13.57,8.26,25.37,16.27,36.28,6.24,8.49,11.05,9.31,13.59,9.61,1.31.16,4.84.4,13.28-4.24,2.58-1.42,10.96-6.23,23.26-19.34,5.73-6.12,8.6-9.18,10.8-13.53,4.22-8.35.91-10.82,5.26-18.71,6.63-12.05,16.12-20.92,29.68-24.62,5.19-1.42,10.49-1.61,15.45,1.31,5.95,3.5,7.4,9,6.87,15.33-.59,7.07-3.25,13.25-7.5,19.02-3.82,5.2-7.78,10.21-13.33,13.46-4.24,2.48-8.92,4.38-13.6,5.91-3.75,1.22-7.81,1.48-11.71,2.25-.61.12-1.46.61-1.88,1.07-5.86,6.34-11.66,12.74-17.51,19.09-4.7,5.11-9.45,10.17-14.16,15.26-2.13,2.3-1.76,3.67,1.32,4.39,18.67,4.35,36.96,3.6,54.62-4.44,2.63-1.2,4.93-1.54,7.87-.34,12.16,4.92,24.47,9.47,36.73,14.14.28.11.62.08,1.31.15-.25-.77-.35-1.37-.63-1.86-5.15-8.97-9.98-18.16-15.64-26.8-2.7-4.11-2.02-6.4.73-9.99,11.89-15.58,16.67-33.45,15.19-52.88-.65-8.54-2.88-16.77-6.07-24.85-3.95-10.01-10.52-17.95-17.76-25.52-6.48-6.78-16.13-7.93-23.22-1.42-8.06,7.38-16.23,14.63-24.35,21.95-2.3,2.08-4.82,3.99-6.76,6.37-1.42,1.73-2.19,4.05-2.99,6.21-.41,1.1-.21,2.42-.31,3.64-.47,5.5-2.09,10.19-6.44,14.24-9.32,8.68-18.1,17.93-27.11,26.94-2.06,2.06-2.28,1.98-3.61-.45-.39-.72-1.31-1.15-2.2-1.9Z"/>
        <path class="cls-1" d="m61.18,70.36c6.26,4.18,5.2,3.54,1.44,7.32-7.29,7.32-14.61,14.62-21.99,21.86-.41.4-1.57.42-2.15.15-.76-.36-1.54-1.1-1.87-1.86-.3-.69-.37-1.98.06-2.43,8.14-8.42,16.36-16.75,24.51-25.04Z"/>
        <path class="cls-1" d="m32.36,93.45c-1.13-1.05-2.32-1.79-2.91-2.86-.34-.62.01-2.06.57-2.64,4-4.16,8.15-8.18,12.23-12.27,3.68-3.68,7.35-7.37,11.01-11.08.97-.98,1.94-1.68,2.98-.17.83,1.22,3.31,1.98,1.2,4.1-8.1,8.12-16.18,16.26-24.28,24.38-.22.22-.53.35-.8.53Z"/>
      </g>
    </g>
  </g>
</svg>